<svg xmlns="http://www.w3.org/2000/svg" width="64" height="64" fill="none" viewBox="0 0 64 64"><path fill="#734D04" d="M40.396 20.1525C40.396 18.2855 41.6861 16.6448 43.5373 16.4021C44.2521 16.3085 44.9858 16.2409 45.616 16.2409C46.0512 16.2409 46.5358 16.2731 47.0295 16.3239C49.3688 16.5646 51.147 18.4373 51.5151 20.76C51.8882 23.1147 52.276 26.128 52.276 28.4809C52.276 31.284 51.7256 35.0244 51.3053 37.4717C51.04 39.0169 49.8564 40.2376 48.3063 40.473C47.4124 40.6088 46.4282 40.7209 45.616 40.7209C44.9858 40.7209 44.2521 40.6534 43.5373 40.5597C41.6861 40.3171 40.396 38.6763 40.396 36.8093V20.1525Z"/><path fill="#000" fill-rule="evenodd" d="M38.396 36.8093V20.1525C38.396 17.3979 40.3193 14.8068 43.2774 14.4191C44.0308 14.3204 44.8614 14.2409 45.616 14.2409C46.1423 14.2409 46.6996 14.2794 47.2341 14.3344C50.5768 14.6783 52.997 17.3334 53.4904 20.447C53.8661 22.8179 54.276 25.9616 54.276 28.4809C54.276 31.4701 53.6975 35.3582 53.2765 37.8102C52.8734 40.1576 51.0546 42.0785 48.6067 42.4503C47.681 42.5909 46.5796 42.7209 45.616 42.7209C44.8614 42.7209 44.0308 42.6415 43.2774 42.5428C40.3193 42.155 38.396 39.564 38.396 36.8093ZM43.5373 16.4021C41.6861 16.6448 40.396 18.2855 40.396 20.1525V36.8093C40.396 38.6763 41.6861 40.3171 43.5373 40.5597C44.2521 40.6534 44.9858 40.7209 45.616 40.7209C46.4282 40.7209 47.4124 40.6088 48.3063 40.473C49.8564 40.2376 51.04 39.0169 51.3053 37.4717C51.7256 35.0244 52.276 31.284 52.276 28.4809C52.276 26.128 51.8882 23.1147 51.5151 20.76C51.147 18.4373 49.3688 16.5646 47.0295 16.3239C46.5358 16.2731 46.0512 16.2409 45.616 16.2409C44.9858 16.2409 44.2521 16.3085 43.5373 16.4021Z" clip-rule="evenodd"/><path fill="#4D3302" fill-rule="evenodd" d="M40.396 36.4364V36.8093C40.396 38.6763 41.6861 40.3171 43.5373 40.5597C44.2521 40.6534 44.9858 40.7209 45.616 40.7209C46.4282 40.7209 47.4124 40.6088 48.3063 40.473C49.8564 40.2376 51.04 39.0169 51.3053 37.4717C51.7256 35.0244 52.276 31.284 52.276 28.4809C52.276 26.128 51.8882 23.1147 51.5151 20.76C51.3847 19.9377 51.0777 19.1717 50.6315 18.5146C50.9646 20.7343 51.276 23.3728 51.276 25.4809C51.276 28.284 50.7256 32.0244 50.3053 34.4717C50.04 36.0169 48.8564 37.2376 47.3063 37.473C46.4124 37.6088 45.4282 37.7209 44.616 37.7209C43.9858 37.7209 43.2521 37.6534 42.5373 37.5597C41.6785 37.4472 40.9405 37.0337 40.396 36.4364Z" clip-rule="evenodd"/><path fill="#9C6904" fill-rule="evenodd" d="M47.5703 17.8554C48.0298 17.5491 48.6507 17.6733 48.957 18.1328L48.125 18.6875C48.957 18.1328 48.9573 18.1332 48.9575 18.1335L48.958 18.1343L48.9592 18.1361L48.9621 18.1405L48.9699 18.1524C48.9759 18.1617 48.9837 18.1739 48.993 18.1888C49.0117 18.2186 49.0369 18.2596 49.0675 18.3116C49.1287 18.4156 49.2118 18.5639 49.3093 18.7557C49.5044 19.1394 49.7573 19.6975 50.0078 20.424C50.5093 21.8783 51 24.004 51 26.75C51 27.3023 50.5523 27.75 50 27.75C49.4477 27.75 49 27.3023 49 26.75C49 24.246 48.5531 22.3405 48.1171 21.076C47.8989 20.4432 47.683 19.97 47.5266 19.6622C47.4483 19.5084 47.385 19.3959 47.3436 19.3256C47.3229 19.2905 47.3078 19.2659 47.299 19.252L47.2908 19.2391M47.2906 19.2388C47.2906 19.2388 47.2906 19.2388 47.2906 19.2387C47.2903 19.2382 47.2902 19.2382 47.2905 19.2386L47.2914 19.2399L47.2921 19.2409L47.2925 19.2415" clip-rule="evenodd"/><path fill="#9C6904" d="M17.9906 18.68C17.9906 11.1247 23.7423 5 30.8374 5C37.9325 5 43.6842 11.1247 43.6842 18.68C43.6842 18.68 44.7809 26.1147 45.0364 30.92C45.5301 40.201 43.6842 54.68 43.6842 54.68C43.6842 57.0659 41.8678 59 39.6273 59H36.9227C34.6821 59 32.8658 57.0659 32.8658 54.68V48.0304C32.2051 48.142 31.5276 48.2 30.8374 48.2C29.6673 48.2 28.5338 48.0334 27.4566 47.7214V53.24C27.4566 55.6259 26.9926 57.56 24.7521 57.56H22.0475C19.0048 57.56 18.1551 55.4196 17.9906 52.88C17.3144 42.44 15.286 41.36 15.286 35.24C15.286 29.12 17.9906 18.68 17.9906 18.68Z"/><path fill="#000" fill-rule="evenodd" d="M43.6842 54.68C43.6842 57.0659 41.8678 59 39.6273 59H36.9227C34.6821 59 32.8658 57.0659 32.8658 54.68V48.0304C32.2142 48.1405 31.5462 48.1984 30.8658 48.2C30.8563 48.2 30.8469 48.2 30.8374 48.2C30.3709 48.2 29.9102 48.1735 29.4566 48.1219C28.7725 48.0441 28.1044 47.909 27.4566 47.7214V53.24C27.4566 55.6259 26.9926 57.56 24.7521 57.56H22.0475C19.0048 57.56 18.1551 55.4196 17.9906 52.88C17.6323 47.3472 16.8941 44.4432 16.2794 42.0248C15.7342 39.8797 15.286 38.1166 15.286 35.24C15.286 29.12 17.9906 18.68 17.9906 18.68C17.9906 11.1247 23.7423 5 30.8374 5C37.9325 5 43.6842 11.1247 43.6842 18.68C43.6842 18.68 44.7809 26.1147 45.0364 30.92C45.5301 40.201 43.6842 54.68 43.6842 54.68ZM45.6835 18.5304C45.6077 10.0572 39.1049 3 30.8374 3C22.6052 3 16.1227 9.99696 15.9926 18.4217C15.9759 18.4879 15.9561 18.5669 15.9335 18.6579C15.8578 18.9623 15.7503 19.4018 15.6215 19.9475C15.3641 21.0381 15.0208 22.5572 14.6773 24.2721C13.9991 27.6571 13.286 31.9656 13.286 35.24C13.286 38.3708 13.7875 40.3418 14.3367 42.5008C14.3729 42.643 14.4093 42.786 14.4458 42.9302C15.017 45.1896 15.6668 47.9445 15.9948 53.0093C16.0847 54.3981 16.3714 56.027 17.3162 57.3403C18.3616 58.7935 19.9855 59.56 22.0475 59.56H24.7521C25.6054 59.56 26.431 59.3732 27.161 58.9282C27.8929 58.482 28.3947 57.8577 28.7286 57.1986C29.3521 55.968 29.4566 54.4775 29.4566 53.24V50.133C29.9115 50.1773 30.3721 50.2 30.8374 50.2C30.8469 50.2 30.8563 50.2 30.8658 50.2V54.68C30.8658 58.0502 33.461 61 36.9227 61H39.6273C43.0423 61 45.6141 58.1291 45.6827 54.816L45.6896 54.7607C45.7034 54.6498 45.7233 54.487 45.7484 54.2772C45.7985 53.8576 45.8694 53.2495 45.9529 52.4914C46.1197 50.9759 46.3368 48.8582 46.5385 46.4471C46.9396 41.6507 47.2881 35.5976 47.0336 30.8138C46.9019 28.3371 46.5564 25.219 46.2491 22.751C46.0947 21.5103 45.9484 20.4216 45.8406 19.6427C45.7867 19.2531 45.7424 18.9406 45.7115 18.725C45.7004 18.6472 45.691 18.582 45.6835 18.5304Z" clip-rule="evenodd"/><path fill="#734D04" fill-rule="evenodd" d="M18.0223 17.7108C18.0013 18.031 17.9906 18.3542 17.9906 18.68C17.9906 18.68 17.2016 21.7254 16.476 25.4909C17.3627 26.9891 18.9549 28.058 20.8774 28.1603L30.6961 28.683C33.6653 28.8411 36.3611 26.958 37.2346 24.1158C38.4731 20.0861 35.5948 15.9654 31.385 15.7413L24.2054 15.3591C21.844 15.2334 19.6197 16.1314 18.0223 17.7108Z" clip-rule="evenodd"/><path fill="#734D04" fill-rule="evenodd" d="M18.4771 55.3185C19.0151 56.6526 20.0665 57.56 22.0475 57.56H24.7521C26.9926 57.56 27.4567 55.6259 27.4567 53.24V47.7214C28.5339 48.0334 29.6674 48.2 30.8374 48.2C30.8469 48.2 30.8564 48.2 30.8658 48.2V46.0304C30.2051 46.142 29.5276 46.2 28.8374 46.2C27.6674 46.2 26.5339 46.0334 25.4567 45.7214V51.24C25.4567 53.6259 24.9926 55.56 22.7521 55.56H20.0475C19.4408 55.56 18.9214 55.4749 18.4771 55.3185ZM33.3087 56.6446C33.9803 58.0428 35.3465 59 36.9227 59H39.6273C41.8679 59 43.6842 57.0659 43.6842 54.68C43.6842 54.68 45.5301 40.201 45.0365 30.92C44.7809 26.1147 43.6842 18.68 43.6842 18.68C43.6842 14.221 41.6808 10.2603 38.5801 7.76282C40.5148 10.1575 41.6842 13.2733 41.6842 16.68C41.6842 16.68 42.7809 24.1147 43.0365 28.92C43.5301 38.201 41.6842 52.68 41.6842 52.68C41.6842 55.0659 39.8679 57 37.6273 57H34.9227C34.3491 57 33.8033 56.8732 33.3087 56.6446Z" clip-rule="evenodd"/><path fill="#C48E27" fill-rule="evenodd" d="M31.1371 6.79046C31.2528 7.33049 30.9088 7.86208 30.3688 7.9778C26.5442 8.79736 24.049 11.3728 22.4671 14.3755C20.8769 17.3939 20.2614 20.7593 20.1869 22.9096C20.185 22.9656 20.1783 23.0213 20.1671 23.0762C19.9297 24.232 19.573 26.0963 19.2761 27.9229C18.9749 29.7765 18.75 31.5058 18.75 32.4375C18.75 34.9732 18.9405 38.1156 20.1077 40.8584C20.3239 41.3666 20.0872 41.9539 19.5791 42.1701C19.0709 42.3864 18.4836 42.1497 18.2673 41.6415C16.9345 38.5094 16.75 35.0268 16.75 32.4375C16.75 31.3192 17.0043 29.4339 17.302 27.6021C17.5972 25.7855 17.9497 23.9373 18.1913 22.7552C18.2869 20.3624 18.962 16.7376 20.6976 13.4433C22.4623 10.0938 25.3744 7.00263 29.9498 6.02219C30.4898 5.90647 31.0214 6.25044 31.1371 6.79046Z" clip-rule="evenodd"/><path fill="#54B0D7" d="M13.9592 18.1192C15.0609 14.5346 18.4607 12.1598 22.2055 12.3591L29.3851 12.7413C33.5948 12.9654 36.4731 17.0861 35.2347 21.1158V21.1158C34.3612 23.958 31.6654 25.8411 28.6961 25.683L18.8775 25.1603C15.338 24.9719 12.918 21.5073 13.9592 18.1192V18.1192Z"/><path fill="#000" fill-rule="evenodd" d="M22.3118 10.362L29.4914 10.7442C35.0004 11.0374 38.7671 16.4299 37.1464 21.7033C36.0033 25.4228 32.4755 27.887 28.5898 27.6802L18.7711 27.1575C13.9323 26.8999 10.624 22.1635 12.0474 17.5317C13.4187 13.0698 17.6506 10.1138 22.3118 10.362ZM22.2055 12.3591C18.4607 12.1598 15.0608 14.5346 13.9592 18.1192C12.9179 21.5073 15.338 24.9719 18.8775 25.1603L28.6961 25.683C31.6653 25.8411 34.3612 23.958 35.2347 21.1158C36.4731 17.0861 33.5948 12.9654 29.3851 12.7413L22.2055 12.3591Z" clip-rule="evenodd"/><path fill="#4088A3" fill-rule="evenodd" d="M14.4426 22.4337C15.3224 23.9618 16.9306 25.0567 18.8775 25.1603L28.6961 25.683C31.6654 25.8411 34.3612 23.958 35.2347 21.1158C36.0649 18.4144 35.0451 15.6722 33.0144 14.0904C33.9588 15.6095 34.2843 17.5207 33.7031 19.412C32.8296 22.2542 30.1338 24.1373 27.1645 23.9792L17.3459 23.4565C16.2468 23.398 15.2557 23.0236 14.4426 22.4337Z" clip-rule="evenodd"/><path fill="#71D8F9" d="M15.6875 16.2813C16.2244 14.6737 18.5743 13.1978 20.592 13.2569C22.6096 13.3161 22.5783 13.071 26.3673 13.4261C30.1563 13.7813 31.2616 15.799 30.5004 18.0782C29.9636 19.6858 28.2052 20.5279 26.1875 20.4688C24.1698 20.4097 22.5938 20.9063 19.7813 20.9063C16.9688 20.9063 14.9263 18.5605 15.6875 16.2813Z"/><path fill="#EDFEFF" fill-rule="evenodd" d="M18.2582 16.258L17.8841 15.3306C17.3719 15.5372 17.1242 16.1199 17.3308 16.6321C17.5374 17.1441 18.1197 17.3918 18.6318 17.1856L18.6305 17.1861C18.6297 17.1864 18.6302 17.1862 18.6305 17.1861L18.6424 17.1815C18.655 17.1767 18.6767 17.1686 18.7069 17.1578C18.7675 17.1363 18.8624 17.1039 18.9884 17.0656C19.2405 16.9888 19.615 16.8885 20.0853 16.8017C21.0283 16.6278 22.3386 16.512 23.811 16.7389C24.3568 16.823 24.8675 16.4486 24.9516 15.9028C25.0357 15.3569 24.6614 14.8463 24.1155 14.7622C22.3697 14.4932 20.8275 14.6312 19.7226 14.8349C19.1688 14.937 18.7205 15.0565 18.4058 15.1523C18.2483 15.2003 18.1238 15.2425 18.0358 15.2738C17.9918 15.2895 17.9568 15.3025 17.9314 15.3121L17.9005 15.3241L17.8904 15.328L17.8868 15.3295L17.8853 15.3301C17.885 15.3302 17.8841 15.3306 18.2582 16.258Z" clip-rule="evenodd"/><path fill="#000" fill-rule="evenodd" d="M22.8855 47.0556C23.1199 46.5555 23.7153 46.3401 24.2154 46.5745C25.4027 47.131 26.9143 47.4168 28.3985 47.5396C29.8694 47.6613 31.241 47.6177 32.1055 47.5581C32.6565 47.5201 33.134 47.936 33.1719 48.487C33.2099 49.038 32.794 49.5154 32.243 49.5534C31.3118 49.6175 29.8342 49.6652 28.2336 49.5328C26.6463 49.4014 24.8642 49.0874 23.3666 48.3855C22.8665 48.1511 22.6511 47.5557 22.8855 47.0556Z" clip-rule="evenodd"/><path fill="#C48E27" fill-rule="evenodd" d="M34.4485 44.9427C34.9979 44.9989 35.3978 45.4898 35.3416 46.0392C35.2501 46.9342 35.1396 48.3917 35.1075 49.8348C35.0745 51.3166 35.1289 52.6511 35.3153 53.376C35.4528 53.9108 35.1307 54.456 34.5958 54.5935C34.0609 54.731 33.5158 54.4089 33.3783 53.874C33.1147 52.8489 33.0753 51.2563 33.108 49.7902C33.1415 48.2854 33.256 46.7741 33.352 45.8358C33.4082 45.2863 33.8991 44.8865 34.4485 44.9427Z" clip-rule="evenodd"/></svg>